<svg width="50" height="50" viewBox="0 0 50 50" fill="none" xmlns="http://www.w3.org/2000/svg">
<path d="M50 25C50 38.8071 38.8071 50 25 50C11.1929 50 0 38.8071 0 25C0 11.1929 11.1929 0 25 0C38.8071 0 50 11.1929 50 25Z" fill="#DC001B"/>
<path d="M31.25 36.0198C32.0625 35.2073 32.0625 33.8948 31.25 33.0823L23.1666 24.999L31.25 16.9157C32.0625 16.1032 32.0625 14.7907 31.25 13.9782C30.4375 13.1657 29.125 13.1657 28.3125 13.9782L18.75 23.5407C17.9375 24.3532 17.9375 25.6657 18.75 26.4782L28.3125 36.0407C29.1041 36.8323 30.4375 36.8323 31.25 36.0198Z" fill="white"/>
</svg>
