<svg width="50" height="50" viewBox="0 0 50 50" fill="none" xmlns="http://www.w3.org/2000/svg">
<path d="M0 25C0 11.1929 11.1929 0 25 0C38.8071 0 50 11.1929 50 25C50 38.8071 38.8071 50 25 50C11.1929 50 0 38.8071 0 25Z" fill="#DC001B"/>
<path d="M18.75 13.9802C17.9375 14.7927 17.9375 16.1052 18.75 16.9177L26.8333 25.001L18.75 33.0843C17.9375 33.8968 17.9375 35.2093 18.75 36.0218C19.5625 36.8343 20.875 36.8343 21.6875 36.0218L31.25 26.4593C32.0625 25.6468 32.0625 24.3343 31.25 23.5218L21.6875 13.9593C20.8958 13.1677 19.5625 13.1677 18.75 13.9802Z" fill="white"/>
</svg>
