<svg width="39" height="44" viewBox="0 0 39 44" fill="none" xmlns="http://www.w3.org/2000/svg">
<path d="M32.5 30.5067C30.8533 30.5067 29.38 31.1567 28.2533 32.175L12.805 23.1833C12.9133 22.685 13 22.1867 13 21.6667C13 21.1467 12.9133 20.6483 12.805 20.15L28.08 11.245C29.25 12.3283 30.7883 13 32.5 13C36.0967 13 39 10.0967 39 6.5C39 2.90333 36.0967 0 32.5 0C28.9033 0 26 2.90333 26 6.5C26 7.02 26.0867 7.51833 26.195 8.01667L10.92 16.9217C9.75 15.8383 8.21167 15.1667 6.5 15.1667C2.90333 15.1667 0 18.07 0 21.6667C0 25.2633 2.90333 28.1667 6.5 28.1667C8.21167 28.1667 9.75 27.495 10.92 26.4117L26.3467 35.425C26.2383 35.88 26.1733 36.3567 26.1733 36.8333C26.1733 40.3217 29.0117 43.16 32.5 43.16C35.9883 43.16 38.8267 40.3217 38.8267 36.8333C38.8267 33.345 35.9883 30.5067 32.5 30.5067Z" fill="#DC001B"/>
</svg>
