<?xml version="1.0" encoding="UTF-8"?> <svg xmlns="http://www.w3.org/2000/svg" id="Capa_1" data-name="Capa 1" viewBox="0 0 28.61 28.61"><defs><style>.cls-1{fill:#27a73b;}.cls-2{fill:#e2a111;}.cls-3{fill:#e21b31;}.cls-4{fill:#009840;}.cls-5{fill:#1d7935;}.cls-6{fill:#f9b208;}.cls-7{fill:#e94738;}.cls-8{fill:#f49728;}.cls-9{fill:#007ebf;}.cls-10{fill:#a81738;}.cls-11{fill:#00a5d2;}.cls-12{fill:#ed6c2f;}.cls-13{fill:#e62e3a;}.cls-14{fill:#e82d85;}.cls-15{fill:#1c3762;}.cls-16{fill:#e28d16;}.cls-17{fill:#00568a;}</style></defs><title>ods_simbolo</title><path class="cls-1" d="M62.11,24.11a8.16,8.16,0,0,1,1.28-1.65l-4.2-4.61a14.37,14.37,0,0,0-2.67,3.47Z" transform="translate(-54.76 -13.89)"></path><path class="cls-2" d="M72.42,20.86A8,8,0,0,1,74.18,22l4.22-4.6A14.4,14.4,0,0,0,74.66,15Z" transform="translate(-54.76 -13.89)"></path><path class="cls-3" d="M82.07,22.24L76.48,25A8,8,0,0,1,77,27l6.22-.59a14.18,14.18,0,0,0-1.19-4.17" transform="translate(-54.76 -13.89)"></path><path class="cls-4" d="M76.08,24.22l5.59-2.79A14.4,14.4,0,0,0,79.06,18l-4.22,4.6a8.12,8.12,0,0,1,1.24,1.65" transform="translate(-54.76 -13.89)"></path><path class="cls-5" d="M61,28.19c0-.13,0-0.25,0-0.38l-6.22-.56c0,0.31,0,.62,0,0.93a14.32,14.32,0,0,0,.42,3.46l6-1.72A8.09,8.09,0,0,1,61,28.19" transform="translate(-54.76 -13.89)"></path><path class="cls-6" d="M75.3,33.3a8.18,8.18,0,0,1-1.52,1.43L77.07,40a14.38,14.38,0,0,0,3.21-3Z" transform="translate(-54.76 -13.89)"></path><path class="cls-7" d="M77.13,28.19a7.91,7.91,0,0,1-.19,1.72l6,1.72a14.32,14.32,0,0,0,.42-3.44c0-.3,0-0.59,0-0.88l-6.22.59c0,0.1,0,.19,0,0.29" transform="translate(-54.76 -13.89)"></path><path class="cls-8" d="M62.93,33.42L58,37.2a14.4,14.4,0,0,0,3.25,2.94l3.28-5.31a8.15,8.15,0,0,1-1.56-1.41" transform="translate(-54.76 -13.89)"></path><path class="cls-9" d="M61.1,26.92a7.91,7.91,0,0,1,.6-2l-5.59-2.78a14.17,14.17,0,0,0-1.23,4.23Z" transform="translate(-54.76 -13.89)"></path><path class="cls-10" d="M76.3,40.53L73,35.22a8,8,0,0,1-1.91.78l1.16,6.14a14.19,14.19,0,0,0,4-1.61" transform="translate(-54.76 -13.89)"></path><path class="cls-11" d="M76.71,30.78a8.08,8.08,0,0,1-.87,1.8l5,3.76a14.26,14.26,0,0,0,1.89-3.83Z" transform="translate(-54.76 -13.89)"></path><path class="cls-12" d="M70.23,36.17a8,8,0,0,1-2.1,0L67,42.35a14.31,14.31,0,0,0,4.41,0Z" transform="translate(-54.76 -13.89)"></path><path class="cls-13" d="M69.58,20.14a8,8,0,0,1,2,.39l2.24-5.83a14.24,14.24,0,0,0-4.24-.8v6.25Z" transform="translate(-54.76 -13.89)"></path><path class="cls-14" d="M67.24,36.05a8.07,8.07,0,0,1-2-.75L62,40.61a14.22,14.22,0,0,0,4.11,1.57Z" transform="translate(-54.76 -13.89)"></path><path class="cls-15" d="M66.64,20.5a8.07,8.07,0,0,1,2-.36V13.89a14.25,14.25,0,0,0-4.3.78Z" transform="translate(-54.76 -13.89)"></path><path class="cls-16" d="M62.38,32.7a8,8,0,0,1-1-1.91l-6,1.72a14.28,14.28,0,0,0,2,4Z" transform="translate(-54.76 -13.89)"></path><path class="cls-17" d="M64.07,21.87a8,8,0,0,1,1.73-1L63.54,15a14.29,14.29,0,0,0-3.68,2.25Z" transform="translate(-54.76 -13.89)"></path></svg> 