<?xml version="1.0" encoding="UTF-8" standalone="no"?>
<!DOCTYPE svg PUBLIC "-//W3C//DTD SVG 1.1//EN" "http://www.w3.org/Graphics/SVG/1.1/DTD/svg11.dtd">
<svg version="1.1" xmlns="http://www.w3.org/2000/svg" xmlns:xlink="http://www.w3.org/1999/xlink" preserveAspectRatio="xMidYMid meet" viewBox="0 0 640 640" width="1280" height="1280"><defs><path d="M318.55 637.09C142.62 637.09 0 494.47 0 318.55C0 142.62 142.62 0 318.55 0C494.47 0 637.09 142.62 637.09 318.55C637.09 494.47 494.47 637.09 318.55 637.09Z" id="c1WmIRQMqU"></path><path d="M398.18 421.53C391.32 414.66 356.98 380.33 295.19 318.53C356.98 256.74 391.32 222.4 398.18 215.54C408.54 205.18 408.54 188.46 398.18 178.11C387.83 167.76 371.11 167.76 360.75 178.11C348.57 190.29 251.09 287.77 238.91 299.95C228.56 310.31 228.56 327.03 238.91 337.38C251.09 349.57 348.57 447.04 360.75 459.23C370.84 469.31 387.83 469.31 398.18 458.96C408.54 448.61 408.54 431.88 398.18 421.53Z" id="b1jB6X2Tyc"></path></defs><g><g><g><use xlink:href="#c1WmIRQMqU" opacity="1" fill="#dc001b" fill-opacity="1"></use><g><use xlink:href="#c1WmIRQMqU" opacity="1" fill-opacity="0" stroke="#000000" stroke-width="1" stroke-opacity="0"></use></g></g><g><use xlink:href="#b1jB6X2Tyc" opacity="1" fill="#ffffff" fill-opacity="1"></use><g><use xlink:href="#b1jB6X2Tyc" opacity="1" fill-opacity="0" stroke="#000000" stroke-width="1" stroke-opacity="0"></use></g></g></g></g></svg>